<?xml version="1.0" standalone="no"?>
<!DOCTYPE svg PUBLIC "-//W3C//DTD SVG 20010904//EN"
 "http://www.w3.org/TR/2001/REC-SVG-20010904/DTD/svg10.dtd">
<svg version="1.0" xmlns="http://www.w3.org/2000/svg"
 width="512.000000pt" height="512.000000pt" viewBox="0 0 512.000000 512.000000"
 preserveAspectRatio="xMidYMid meet">

<g transform="translate(0.000000,512.000000) scale(0.100000,-0.100000)"
fill="#000000" stroke="none">
<path d="M763 5106 c-91 -29 -157 -89 -200 -181 l-28 -60 -3 -1117 c-2 -937
-5 -1118 -16 -1118 -8 0 -55 -20 -104 -45 -164 -82 -309 -245 -368 -413 -43
-125 -45 -163 -42 -1067 l3 -860 26 -55 c33 -70 89 -126 159 -159 l55 -26 930
0 930 0 67 33 c78 38 129 94 159 172 18 48 19 86 19 926 0 976 2 946 -70 1099
-50 108 -119 196 -207 266 -72 57 -204 129 -237 129 -15 0 -16 39 -16 447 0
245 3 443 7 439 4 -4 201 -298 438 -654 236 -356 442 -656 458 -666 42 -31 79
-15 292 125 105 69 195 128 201 132 7 4 191 -264 473 -686 l462 -693 110 -410
c75 -278 121 -428 142 -467 37 -71 91 -119 177 -161 58 -27 75 -31 155 -31 80
0 97 3 155 31 115 54 182 132 215 248 34 118 -2 266 -86 358 -19 20 -181 151
-361 291 l-327 254 -461 692 c-253 381 -460 695 -460 699 0 4 73 54 161 111
164 106 199 140 199 192 0 29 -107 194 -829 1279 -244 366 -455 678 -469 693
-15 15 -56 42 -91 60 -54 26 -76 31 -135 31 -89 0 -138 -21 -303 -132 l-120
-81 -6 73 c-3 41 -15 95 -27 123 -26 62 -99 135 -165 165 -49 23 -57 23 -435
25 -297 2 -395 -1 -427 -11z m808 -234 c29 -32 29 -33 29 -160 l0 -127 -44
-28 c-97 -61 -155 -154 -164 -263 -7 -88 15 -143 119 -300 l89 -134 0 -595 0
-595 -425 0 -425 0 0 1083 c0 984 1 1085 16 1106 35 49 53 51 427 48 l349 -2
29 -33z m738 -159 c25 -22 1203 -1793 1199 -1804 -2 -4 -160 -111 -352 -239
-280 -185 -352 -228 -362 -218 -30 32 -1185 1783 -1190 1805 -15 59 9 81 313
282 256 170 293 191 329 191 25 0 50 -7 63 -17z m-564 -2279 c134 -34 263
-138 329 -264 67 -127 66 -104 66 -1033 0 -598 -3 -845 -11 -860 -6 -12 -21
-30 -33 -39 -20 -16 -83 -18 -918 -18 l-898 0 -32 29 -33 29 0 864 0 863 22
70 c54 172 200 313 373 361 33 9 181 12 560 13 436 1 525 -1 575 -15z m2970
-1818 c82 -64 158 -131 169 -148 46 -72 16 -182 -62 -230 -71 -44 -182 -20
-227 49 -13 20 -155 513 -155 539 0 3 28 -16 63 -44 34 -27 129 -101 212 -166z"/>
<path d="M1429 2212 c-29 -26 -34 -37 -34 -77 0 -63 38 -99 114 -108 69 -8
128 -42 166 -95 l30 -44 5 -700 5 -700 33 -29 c24 -22 42 -29 73 -29 59 0 95
39 104 111 3 30 5 347 3 704 l-3 650 -23 57 c-68 169 -203 272 -373 285 -63 5
-68 4 -100 -25z"/>
</g>
</svg>
